name rise44.9368peak50.754fall52.0217.mot
datacolumns 19
datarows 32
range 6.64331500000000 6.69497800000000
endheader
time	ground_force1_vx	ground_force1_vy	ground_force1_vz	ground_force1_px	ground_force1_py	ground_force1_pz	ground_force2_vx	ground_force2_vy	ground_force2_vz	ground_force2_px	ground_force2_py	ground_force2_pz	ground_torque1_x	ground_torque1_y	ground_torque1_z	ground_torque2_x	ground_torque2_y	ground_torque2_z	
6.64331500000000	-11.46946300000000	40.68013000000000	-12.68284600000000	0.40785200000000	0.00000000000000	0.07471900000000	-62.78140300000000	828.51497600000005	-60.34787400000000	0.16873900000000	0.00000000000000	-0.12604500000000	0.00000000000000	-10.42688400000000	0.00000000000000	0.00000000000000	-34.58652000000000	0.00000000000000	
6.64498200000000	-12.68228900000000	47.56497400000000	-14.25292300000000	0.41057100000000	0.00000000000000	0.07609800000000	-63.07673500000000	825.45871599999998	-59.94740400000000	0.16800500000000	0.00000000000000	-0.12596200000000	0.00000000000000	-11.76380700000000	0.00000000000000	0.00000000000000	-34.40844800000000	0.00000000000000	
6.64664900000000	-13.70754700000000	54.51144800000000	-15.67698400000000	0.41301100000000	0.00000000000000	0.07737300000000	-63.36863200000000	822.24806000000001	-59.52634000000000	0.16727300000000	0.00000000000000	-0.12587700000000	0.00000000000000	-12.99039500000000	0.00000000000000	0.00000000000000	-34.22612200000000	0.00000000000000	
6.64831000000000	-14.51482900000000	61.42996200000000	-16.92171600000000	0.41521600000000	0.00000000000000	0.07855700000000	-63.65769000000000	818.88331800000003	-59.08481500000000	0.16654400000000	0.00000000000000	-0.12578800000000	0.00000000000000	-14.07890300000000	0.00000000000000	0.00000000000000	-34.03983400000000	0.00000000000000	
6.64998300000000	-15.08567900000000	68.25427400000000	-17.96521000000000	0.41722000000000	0.00000000000000	0.07966300000000	-63.94447700000000	815.36486600000001	-58.62298800000000	0.16581700000000	0.00000000000000	-0.12569700000000	0.00000000000000	-15.01089100000000	0.00000000000000	0.00000000000000	-33.84987200000000	0.00000000000000	
6.65165000000000	-15.41348400000000	74.94343100000000	-18.79708600000000	0.41905300000000	0.00000000000000	0.08069800000000	-64.22952400000000	811.69314099999997	-58.14104200000000	0.16509100000000	0.00000000000000	-0.12560200000000	0.00000000000000	-15.77737500000000	0.00000000000000	0.00000000000000	-33.65651900000000	0.00000000000000	
6.65331200000000	-15.50241500000000	81.48130600000000	-19.41766600000000	0.42073900000000	0.00000000000000	0.08167300000000	-64.51332600000001	807.86863100000005	-57.63918500000000	0.16436700000000	0.00000000000000	-0.12550500000000	0.00000000000000	-16.37818400000000	0.00000000000000	0.00000000000000	-33.46005300000000	0.00000000000000	
6.65497400000000	-15.36566800000000	87.87415000000000	-19.83640000000000	0.42229800000000	0.00000000000000	0.08259200000000	-64.79633000000000	803.89187700000002	-57.11765000000000	0.16364300000000	0.00000000000000	-0.12540400000000	0.00000000000000	-16.82068700000000	0.00000000000000	0.00000000000000	-33.26074300000000	0.00000000000000	
6.65664600000000	-15.02326300000000	94.14673100000000	-20.06982800000000	0.42374700000000	0.00000000000000	0.08346200000000	-65.07894000000000	799.76346300000000	-56.57669700000000	0.16292100000000	0.00000000000000	-0.12530000000000	0.00000000000000	-17.11813700000000	0.00000000000000	0.00000000000000	-33.05885000000000	0.00000000000000	
6.65831000000000	-14.49966600000000	100.33759800000000	-20.13930200000000	0.42510100000000	0.00000000000000	0.08428800000000	-65.36150300000000	795.48401600000000	-56.01660700000000	0.16219800000000	0.00000000000000	-0.12519300000000	0.00000000000000	-17.28780500000000	0.00000000000000	0.00000000000000	-32.85462500000000	0.00000000000000	
6.65997600000000	-13.82145600000000	106.49404199999999	-20.06871800000000	0.42637200000000	0.00000000000000	0.08507400000000	-65.64431399999999	791.05419800000004	-55.43768900000000	0.16147600000000	0.00000000000000	-0.12508300000000	0.00000000000000	-17.34911600000000	0.00000000000000	0.00000000000000	-32.64830700000000	0.00000000000000	
6.66164100000000	-13.01521900000000	112.66718899999999	-19.88243500000000	0.42757200000000	0.00000000000000	0.08582200000000	-65.92760300000000	786.47470399999997	-54.84027400000000	0.16075400000000	0.00000000000000	-0.12496900000000	0.00000000000000	-17.32193100000000	0.00000000000000	0.00000000000000	-32.44012300000000	0.00000000000000	
6.66331200000000	-12.10580400000000	118.90761100000000	-19.60350500000000	0.42870800000000	0.00000000000000	0.08653600000000	-66.21153800000000	781.74625600000002	-54.22471800000000	0.16003200000000	0.00000000000000	-0.12485300000000	0.00000000000000	-17.22508400000000	0.00000000000000	0.00000000000000	-32.23028600000000	0.00000000000000	
6.66497800000000	-11.11500600000000	125.26170800000000	-19.25231600000000	0.42979000000000	0.00000000000000	0.08721900000000	-66.49621700000000	776.86960199999999	-53.59140200000000	0.15931000000000	0.00000000000000	-0.12473300000000	0.00000000000000	-17.07525700000000	0.00000000000000	0.00000000000000	-32.01899500000000	0.00000000000000	
6.66664900000000	-10.06071400000000	131.76899800000001	-18.84566900000000	0.43082300000000	0.00000000000000	0.08787400000000	-66.78166600000000	771.84551199999999	-52.94072600000000	0.15858800000000	0.00000000000000	-0.12461000000000	0.00000000000000	-16.88620200000000	0.00000000000000	0.00000000000000	-31.80643200000000	0.00000000000000	
6.66830900000000	-8.95649600000000	138.46036400000000	-18.39628900000000	0.43181300000000	0.00000000000000	0.08850100000000	-67.06783700000000	766.67477399999996	-52.27311900000000	0.15786500000000	0.00000000000000	-0.12448300000000	0.00000000000000	-16.66833100000000	0.00000000000000	0.00000000000000	-31.59276200000000	0.00000000000000	
6.66997500000000	-7.81158200000000	145.35722300000000	-17.91272700000000	0.43276700000000	0.00000000000000	0.08910300000000	-67.35460200000000	761.35819100000003	-51.58902900000000	0.15714300000000	0.00000000000000	-0.12435300000000	0.00000000000000	-16.42862000000000	0.00000000000000	0.00000000000000	-31.37813100000000	0.00000000000000	
6.67164200000000	-6.63117600000000	152.47150700000000	-17.39958900000000	0.43368600000000	0.00000000000000	0.08968100000000	-67.64175299999999	755.89658399999996	-50.88892700000000	0.15642100000000	0.00000000000000	-0.12422000000000	0.00000000000000	-16.17079100000000	0.00000000000000	0.00000000000000	-31.16266800000000	0.00000000000000	
6.67331200000000	-5.41700600000000	159.80631099999999	-16.85802200000000	0.43457700000000	0.00000000000000	0.09023700000000	-67.92900000000000	750.29078600000003	-50.17330500000000	0.15569900000000	0.00000000000000	-0.12408300000000	0.00000000000000	-15.89569500000000	0.00000000000000	0.00000000000000	-30.94647900000000	0.00000000000000	
6.67497900000000	-4.16803300000000	167.35703300000000	-16.28636700000000	0.43544100000000	0.00000000000000	0.09077100000000	-68.21596500000000	744.54164400000002	-49.44267900000000	0.15497700000000	0.00000000000000	-0.12394300000000	0.00000000000000	-15.60184700000000	0.00000000000000	0.00000000000000	-30.72965200000000	0.00000000000000	
6.67664400000000	-2.88123600000000	175.11283499999999	-15.68089800000000	0.43628200000000	0.00000000000000	0.09128600000000	-68.50218800000000	738.65002100000004	-48.69758300000000	0.15425600000000	0.00000000000000	-0.12379900000000	0.00000000000000	-15.28602900000000	0.00000000000000	0.00000000000000	-30.51225000000000	0.00000000000000	
6.67831600000000	-1.55239900000000	183.05825200000001	-15.03658600000000	0.43710100000000	0.00000000000000	0.09178200000000	-68.78711900000000	732.61679500000002	-47.93857100000000	0.15353600000000	0.00000000000000	-0.12365200000000	0.00000000000000	-14.94391200000000	0.00000000000000	0.00000000000000	-30.29431700000000	0.00000000000000	
6.67997500000000	-0.17684200000000	191.17480499999999	-14.34781500000000	0.43790100000000	0.00000000000000	0.09225900000000	-69.07012300000000	726.44286599999998	-47.16621900000000	0.15281800000000	0.00000000000000	-0.12350100000000	0.00000000000000	-14.57065100000000	0.00000000000000	0.00000000000000	-30.07587200000000	0.00000000000000	
6.68165000000000	1.24994500000000	199.44249700000000	-13.60901600000000	0.43868400000000	0.00000000000000	0.09272000000000	-69.35047500000000	720.12915799999996	-46.38111900000000	0.15210100000000	0.00000000000000	-0.12334700000000	0.00000000000000	-14.16140100000000	0.00000000000000	0.00000000000000	-29.85691200000000	0.00000000000000	
6.68330700000000	2.73180100000000	207.84110600000000	-12.81518100000000	0.43945000000000	0.00000000000000	0.09316300000000	-69.62736599999999	713.67662299999995	-45.58388200000000	0.15138600000000	0.00000000000000	-0.12318900000000	0.00000000000000	-13.71174600000000	0.00000000000000	0.00000000000000	-29.63741100000000	0.00000000000000	
6.68497400000000	4.27152800000000	216.35122300000000	-11.96224800000000	0.44020100000000	0.00000000000000	0.09359000000000	-69.89990100000000	707.08624699999996	-44.77513600000000	0.15067400000000	0.00000000000000	-0.12302700000000	0.00000000000000	-13.21801900000000	0.00000000000000	0.00000000000000	-29.41731900000000	0.00000000000000	
6.68664200000000	5.87066600000000	224.95499500000000	-11.04734700000000	0.44093800000000	0.00000000000000	0.09400200000000	-70.16710300000000	700.35906100000000	-43.95552500000000	0.14996500000000	0.00000000000000	-0.12286200000000	0.00000000000000	-12.67750900000000	0.00000000000000	0.00000000000000	-29.19656200000000	0.00000000000000	
6.68831400000000	7.52940200000000	233.63660600000000	-10.06892000000000	0.44166200000000	0.00000000000000	0.09439900000000	-70.42791099999999	693.49614199999996	-43.12570700000000	0.14926000000000	0.00000000000000	-0.12269300000000	0.00000000000000	-12.08856700000000	0.00000000000000	0.00000000000000	-28.97504300000000	0.00000000000000	
6.68997600000000	9.24658500000000	242.38247400000000	-9.02673300000000	0.44237300000000	0.00000000000000	0.09478200000000	-70.68118800000001	686.49862499999995	-42.28635500000000	0.14855900000000	0.00000000000000	-0.12252000000000	0.00000000000000	-11.45061600000000	0.00000000000000	0.00000000000000	-28.75264200000000	0.00000000000000	
6.69165000000000	11.01983200000000	251.18125000000001	-7.92179400000000	0.44307100000000	0.00000000000000	0.09515000000000	-70.92572000000000	679.36770799999999	-41.43815600000000	0.14786200000000	0.00000000000000	-0.12234300000000	0.00000000000000	-10.76409300000000	0.00000000000000	0.00000000000000	-28.52921700000000	0.00000000000000	
6.69330800000000	12.84570000000000	260.02362399999998	-6.75620200000000	0.44375700000000	0.00000000000000	0.09550500000000	-71.16022200000000	672.10466099999996	-40.58180800000000	0.14717200000000	0.00000000000000	-0.12216300000000	0.00000000000000	-10.03032700000000	0.00000000000000	0.00000000000000	-28.30460300000000	0.00000000000000	
6.69497800000000	14.71989500000000	268.90201500000001	-5.53296500000000	0.44443100000000	0.00000000000000	0.09584600000000	-71.38334000000000	664.71082999999999	-39.71802000000000	0.14648700000000	0.00000000000000	-0.12197900000000	0.00000000000000	-9.25139300000000	0.00000000000000	0.00000000000000	-28.07861400000000	0.00000000000000	
